# xmcd CD database file
#
# Track frame offsets:
#	150
#	17611
#	60448
#	87606
#	113474
#	132936
#	169664
#	183778
#	210264
#	244056
#	259890
#	287033
#
# Disc length: 4050 seconds
#
# Revision: 0
# Processed by: cddbd v1.5.2PL0 Copyright (c) Steve Scherf et al.
# Submitted via: CDex 1.50
#
DISCID=9a0fd00c
DTITLE=Various Artist - Jazz&Blues Award 2007
DYEAR=2007
DGENRE=Jazz
TTITLE0=Niniwe - Sweet Bees
TTITLE1=Blowing Front - Park Athmo
TTITLE2=Jazz Vocals - Still Crazy After All These Years
TTITLE3=Tanja Pannier Quartett - Message In A Bottle
TTITLE4=Raffinierta Zucka - My Favorite Things
TTITLE5=Metrobob - Es Gibt Leider Brötchen
TTITLE6=Fracy - In This Heart
TTITLE7=Klangbezirk - Banana Pancace
TTITLE8=Martin Kern Quartett - Play Station
TTITLE9=Cheek To Cheek - Aint She Sweet
TTITLE10=Glücklich 1 - Was Wäre Wenn
TTITLE11=Lenard Streicher and Band - Magic Of Love
EXTD=YEAR: 2007
EXTT0=
EXTT1=
EXTT2=
EXTT3=
EXTT4=
EXTT5=
EXTT6=
EXTT7=
EXTT8=
EXTT9=
EXTT10=
EXTT11=
PLAYORDER=
